<svg width="480" height="480" version="1.1" xmlns="http://www.w3.org/2000/svg" desc="Created with imagetracer.js version 1.2.6" ><path fill="rgb(0,0,0)" stroke="rgb(0,0,0)" stroke-width="1" opacity="0" d="M 0 0 L 480 0 L 480 480 L 0 480 L 0 0 Z M 233 50 L 219 55 L 101 119 L 45 236 L 38 254 L 38 270 Q 40 279 45 286 L 190 430 L 350 430 L 350 430 L 350 370 L 420 370 L 420 210 L 269 58 Q 261 52 251 50 L 233 50 Z " /><path fill="rgb(65,158,236)" stroke="rgb(65,158,236)" stroke-width="1" opacity="0.9294117647058824" d="M 232.5 50 L 240 50.5 L 225.5 53 L 100.5 120 L 100.5 119 L 209.5 60 L 225.5 52 L 232.5 50 Z " /><path fill="rgb(65,158,236)" stroke="rgb(65,158,236)" stroke-width="1" opacity="0.9294117647058824" d="M 242.5 50 L 250 50.5 L 242.5 51 L 242.5 50 Z " /><path fill="rgb(65,158,236)" stroke="rgb(65,158,236)" stroke-width="1" opacity="0.9294117647058824" d="M 251.5 51 L 254 51.5 L 251.5 52 L 251.5 51 Z " /><path fill="rgb(65,158,236)" stroke="rgb(65,158,236)" stroke-width="1" opacity="0.9294117647058824" d="M 255.5 52 L 268.5 58 L 336 125.5 L 270.5 61 Q 264.7 55.3 255.5 53 L 255.5 52 Z " /><path fill="rgb(65,158,236)" stroke="rgb(65,158,236)" stroke-width="1" opacity="0.9294117647058824" d="M 111.5 351 L 112.5 353 L 111.5 351 Z " /><path fill="rgb(65,158,236)" stroke="rgb(65,158,236)" stroke-width="1" opacity="0.9294117647058824" d="M 114.5 354 L 120.5 361 L 114.5 354 Z " /><path fill="rgb(65,158,236)" stroke="rgb(65,158,236)" stroke-width="1" opacity="0.9294117647058824" d="M 122.5 362 L 128.5 369 L 122.5 362 Z " /><path fill="rgb(66,164,244)" stroke="rgb(66,164,244)" stroke-width="1" opacity="0.996078431372549" d="M 250.5 51 L 255 52.5 L 235 54 L 234 58 Q 231.3 59.1 232 56.5 L 228 54 L 228.5 52 L 249.5 52 L 250.5 51 Z " /><path fill="rgb(66,164,244)" stroke="rgb(66,164,244)" stroke-width="1" opacity="0.996078431372549" d="M 257 54 L 259.5 54 L 267 58.5 L 265.5 59 Q 263.6 55.4 259 56 L 258.5 58 L 257 54 Z " /><path fill="rgb(66,164,244)" stroke="rgb(66,164,244)" stroke-width="1" opacity="0.996078431372549" d="M 213.5 59 L 215 61.5 L 213.5 61 L 211 60.5 L 213.5 59 Z " /><path fill="rgb(66,164,244)" stroke="rgb(66,164,244)" stroke-width="1" opacity="0.996078431372549" d="M 269.5 61 L 276 66.5 L 270.5 62 L 269.5 61 Z " /><path fill="rgb(66,164,244)" stroke="rgb(66,164,244)" stroke-width="1" opacity="0.996078431372549" d="M 264.5 62 L 266 65 L 262 66 L 264.5 62 Z " /><path fill="rgb(66,164,244)" stroke="rgb(66,164,244)" stroke-width="1" opacity="0.996078431372549" d="M 197.5 68 L 200 69.5 L 197 71 L 195.5 74 L 193 70.5 L 197.5 68 Z " /><path fill="rgb(66,164,244)" stroke="rgb(66,164,244)" stroke-width="1" opacity="0.996078431372549" d="M 277.5 68 L 279.5 71 L 277.5 68 Z " /><path fill="rgb(66,164,244)" stroke="rgb(66,164,244)" stroke-width="1" opacity="0.996078431372549" d="M 270.5 69 L 274 71.5 Q 275.1 74.8 272.5 74 L 269 71.5 L 270.5 69 Z " /><path fill="rgb(66,164,244)" stroke="rgb(66,164,244)" stroke-width="1" opacity="0.996078431372549" d="M 202 76 Q 205.7 74.8 204 80 Q 200.3 81.2 202 76 Z " /><path fill="rgb(66,164,244)" stroke="rgb(66,164,244)" stroke-width="1" opacity="0.996078431372549" d="M 180.5 78 L 181 81 Q 178.3 82.1 179 79.5 L 180.5 78 Z " /><path fill="rgb(66,164,244)" stroke="rgb(66,164,244)" stroke-width="1" opacity="0.996078431372549" d="M 279.5 78 L 281.5 81 L 279.5 80 L 279.5 82 Q 277.3 82.8 278 80.5 L 279.5 78 Z " /><path fill="rgb(66,164,244)" stroke="rgb(66,164,244)" stroke-width="1" opacity="0.996078431372549" d="M 165.5 85 L 171 88.5 L 167.5 90 L 163.5 87 L 161.5 88 L 161.5 87 L 165.5 85 Z " /><path fill="rgb(66,164,244)" stroke="rgb(66,164,244)" stroke-width="1" opacity="0.996078431372549" d="M 286.5 85 L 290 87.5 Q 290.8 89.8 288.5 89 L 285 87.5 L 286.5 85 Z " /><path fill="rgb(66,164,244)" stroke="rgb(66,164,244)" stroke-width="1" opacity="0.996078431372549" d="M 176.5 88 L 177.5 90 L 175 89.5 L 176.5 88 Z " /><path fill="rgb(66,164,244)" stroke="rgb(66,164,244)" stroke-width="1" opacity="0.996078431372549" d="M 297.5 88 L 299.5 91 L 297.5 88 Z " /><path fill="rgb(66,164,244)" stroke="rgb(66,164,244)" stroke-width="1" opacity="0.996078431372549" d="M 301.5 92 L 303.5 95 L 301 94 L 301.5 92 Z " /><path fill="rgb(66,164,244)" stroke="rgb(66,164,244)" stroke-width="1" opacity="0.996078431372549" d="M 150.5 93 L 151 95.5 L 150 102 Q 146.7 103.3 148 98.5 L 149 97.5 L 147.5 95 L 150.5 93 Z " /><path fill="rgb(66,164,244)" stroke="rgb(66,164,244)" stroke-width="1" opacity="0.996078431372549" d="M 294 94 L 298 95.5 Q 298.8 97.8 296.5 97 L 294 98 L 294 94 Z " /><path fill="rgb(66,164,244)" stroke="rgb(66,164,244)" stroke-width="1" opacity="0.996078431372549" d="M 152 95 L 156 95.5 L 156 97.5 L 156 111.5 L 160 112 L 160 116 L 152.5 116 L 152 120 L 144 120 L 144 112 L 151.5 112 L 152 111.5 L 152 95 Z " /><path fill="rgb(66,164,244)" stroke="rgb(66,164,244)" stroke-width="1" opacity="0.996078431372549" d="M 143.5 97 L 146 98.5 L 145.5 101 Q 141.5 101.5 141 98.5 L 143.5 97 Z " /><path fill="rgb(66,164,244)" stroke="rgb(66,164,244)" stroke-width="1" opacity="0.996078431372549" d="M 137.5 100 L 139 100.5 L 135.5 102 L 135.5 101 L 137.5 100 Z " /><path fill="rgb(66,164,244)" stroke="rgb(66,164,244)" stroke-width="1" opacity="0.996078431372549" d="M 140.5 101 Q 143.1 100.2 142 103.5 Q 144.3 104.8 141.5 106 L 140 103.5 L 140.5 101 Z " /><path fill="rgb(66,164,244)" stroke="rgb(66,164,244)" stroke-width="1" opacity="0.996078431372549" d="M 302.5 101 L 306 103.5 Q 306.8 105.8 304.5 105 L 301 103.5 L 302.5 101 Z " /><path fill="rgb(66,164,244)" stroke="rgb(66,164,244)" stroke-width="1" opacity="0.996078431372549" d="M 133.5 102 L 132.5 104 L 133.5 102 Z " /><path fill="rgb(66,164,244)" stroke="rgb(66,164,244)" stroke-width="1" opacity="0.996078431372549" d="M 313.5 104 L 315.5 107 L 313.5 104 Z " /><path fill="rgb(66,164,244)" stroke="rgb(66,164,244)" stroke-width="1" opacity="0.996078431372549" d="M 126 106 Q 130.5 104.5 129 109 L 126.5 110 L 126 106 Z " /><path fill="rgb(66,164,244)" stroke="rgb(66,164,244)" stroke-width="1" opacity="0.996078431372549" d="M 317.5 108 L 319.5 111 L 317 110 L 317.5 108 Z " /><path fill="rgb(66,164,244)" stroke="rgb(66,164,244)" stroke-width="1" opacity="0.996078431372549" d="M 310 110 L 314 111.5 Q 314.8 113.8 312.5 113 L 310 114 L 310 110 Z " /><path fill="rgb(66,164,244)" stroke="rgb(66,164,244)" stroke-width="1" opacity="0.996078431372549" d="M 176 112 L 192 112 L 192 120 L 184 120 L 184 116 L 176 116 L 176 112 Z " /><path fill="rgb(66,164,244)" stroke="rgb(66,164,244)" stroke-width="1" opacity="0.996078431372549" d="M 208 112 L 224 112 L 224 120 L 216 120 L 216 116 L 208 116 L 208 112 Z " /><path fill="rgb(66,164,244)" stroke="rgb(66,164,244)" stroke-width="1" opacity="0.996078431372549" d="M 240 112 L 256 112 L 256 120 L 248 120 L 248 116 L 240 116 L 240 112 Z " /><path fill="rgb(66,164,244)" stroke="rgb(66,164,244)" stroke-width="1" opacity="0.996078431372549" d="M 272 112 L 288 112 L 288 120 L 280 120 L 280 116 L 272 116 L 272 112 Z " /><path fill="rgb(66,164,244)" stroke="rgb(66,164,244)" stroke-width="1" opacity="0.996078431372549" d="M 109.5 115 L 110 117.5 L 108.5 117 L 107 116.5 L 109.5 115 Z " /><path fill="rgb(66,164,244)" stroke="rgb(66,164,244)" stroke-width="1" opacity="0.996078431372549" d="M 114 116 Q 123.9 114.5 130 117.5 L 128 118 L 127.5 120 L 112 120 L 114 116 Z " /><path fill="rgb(66,164,244)" stroke="rgb(66,164,244)" stroke-width="1" opacity="0.996078431372549" d="M 318.5 117 L 322 118 L 323 120.5 L 321.5 121 L 317 118.5 L 318.5 117 Z " /><path fill="rgb(66,164,244)" stroke="rgb(66,164,244)" stroke-width="1" opacity="0.996078431372549" d="M 102.5 122 L 107.5 128 L 110 129.5 Q 109.3 131.8 111.5 131 L 115 135.5 L 110.5 132 Q 105.9 130.7 108 136.5 L 106 135.5 L 107 132.5 L 104.5 127 L 101.5 126 L 101 129.5 L 102 130.5 L 102 144 L 100 143.5 L 100 124.5 L 101.5 125 Q 103.8 125.8 103 123.5 L 102.5 122 Z " /><path fill="rgb(66,164,244)" stroke="rgb(66,164,244)" stroke-width="1" opacity="0.996078431372549" d="M 327.5 122 L 331 122 Q 329.8 125 333.5 124 L 335.5 127 L 327.5 123 L 327.5 122 Z " /><path fill="rgb(66,164,244)" stroke="rgb(66,164,244)" stroke-width="1" opacity="0.996078431372549" d="M 116.5 136 L 135.5 156 L 128 149.5 Q 128.8 147.3 126.5 148 L 124 144 L 120 141.5 Q 120.8 139.3 118.5 140 Q 114.9 138.9 116.5 136 Z " /><path fill="rgb(66,164,244)" stroke="rgb(66,164,244)" stroke-width="1" opacity="0.996078431372549" d="M 122 152 Q 125 151 124 154 L 128 154 L 128 160 L 120 160 L 120 154 Q 123 155 122 152 Z " /><path fill="rgb(66,164,244)" stroke="rgb(66,164,244)" stroke-width="1" opacity="0.996078431372549" d="M 136.5 157 L 152 171.5 L 150.5 172 L 148 168 L 146.5 168 L 136.5 157 Z " /><path fill="rgb(66,164,244)" stroke="rgb(66,164,244)" stroke-width="1" opacity="0.996078431372549" d="M 152.5 173 L 168 187.5 L 166.5 188 L 164 184 L 162.5 184 L 152.5 173 Z " /><path fill="rgb(66,164,244)" stroke="rgb(66,164,244)" stroke-width="1" opacity="0.996078431372549" d="M 168.5 189 L 184 203.5 L 182.5 204 L 180 200 L 178.5 200 L 168.5 189 Z " /><path fill="rgb(66,164,244)" stroke="rgb(66,164,244)" stroke-width="1" opacity="0.996078431372549" d="M 184.5 205 L 200 219.5 L 198.5 220 L 196 216 L 194.5 216 L 184.5 205 Z " /><path fill="rgb(66,164,244)" stroke="rgb(66,164,244)" stroke-width="1" opacity="0.996078431372549" d="M 200.5 221 L 216 235.5 L 214.5 236 L 212 232 L 210.5 232 L 200.5 221 Z " /><path fill="rgb(66,164,244)" stroke="rgb(66,164,244)" stroke-width="1" opacity="0.996078431372549" d="M 216.5 237 L 232 251.5 L 230.5 252 L 228 248 L 226.5 248 L 216.5 237 Z " /><path fill="rgb(66,164,244)" stroke="rgb(66,164,244)" stroke-width="1" opacity="0.996078431372549" d="M 232.5 253 L 248 267.5 L 246.5 268 L 244 264 L 242.5 264 L 232.5 253 Z " /><path fill="rgb(66,164,244)" stroke="rgb(66,164,244)" stroke-width="1" opacity="0.996078431372549" d="M 248.5 269 L 264 283.5 L 262.5 284 L 260 280 L 258.5 280 L 248.5 269 Z " /><path fill="rgb(66,164,244)" stroke="rgb(66,164,244)" stroke-width="1" opacity="0.996078431372549" d="M 264.5 285 L 280 299.5 L 278.5 300 L 276 296 L 274.5 296 L 264.5 285 Z " /><path fill="rgb(66,164,244)" stroke="rgb(66,164,244)" stroke-width="1" opacity="0.996078431372549" d="M 280.5 301 L 296 315.5 L 294.5 316 L 292 312 L 290.5 312 L 280.5 301 Z " /><path fill="rgb(66,164,244)" stroke="rgb(66,164,244)" stroke-width="1" opacity="0.996078431372549" d="M 296.5 317 L 312 331.5 L 310.5 332 L 308 328 L 306.5 328 L 296.5 317 Z " /><path fill="rgb(66,164,244)" stroke="rgb(66,164,244)" stroke-width="1" opacity="0.996078431372549" d="M 102.5 327 L 108 328 Q 110 334 104 332 Q 105 329 102 330 L 102.5 327 Z " /><path fill="rgb(66,164,244)" stroke="rgb(66,164,244)" stroke-width="1" opacity="0.996078431372549" d="M 101.5 331 L 106 343 Q 109.3 341.7 108 346.5 L 111 348 L 111.5 350 L 115.5 349 L 118 350 L 118 352 L 122 352 L 122 353.5 L 120.5 353 L 118 354.5 Q 119.4 357.3 124 356 L 126 364 L 129 365.5 Q 126.8 366.8 129.5 368 L 131 367.5 L 132 369.5 L 130.5 370 L 107 346.5 L 103 339.5 L 101.5 331 Z " /><path fill="rgb(66,164,244)" stroke="rgb(66,164,244)" stroke-width="1" opacity="0.996078431372549" d="M 312.5 333 L 328 347.5 L 326.5 348 L 324 344 L 322.5 344 L 312.5 333 Z " /><path fill="rgb(66,164,244)" stroke="rgb(66,164,244)" stroke-width="1" opacity="0.996078431372549" d="M 328.5 349 L 348 367.5 L 349 369.5 L 346.5 370 Q 341.8 371.3 340.5 369 L 141.5 369 L 136 367.5 L 140.5 367 L 142.5 368 L 144.5 368 L 335.5 368 Q 336.7 365.8 341.5 367 L 345.5 368 L 344 365.5 Q 344.8 363.3 342.5 364 L 340 360 L 338.5 360 L 328.5 349 Z " /><path fill="rgb(66,164,244)" stroke="rgb(66,164,244)" stroke-width="1" opacity="0.996078431372549" d="M 127.5 358 L 128 360.5 L 126 359.5 L 127.5 358 Z " /><path fill="rgb(31,98,170)" stroke="rgb(31,98,170)" stroke-width="1" opacity="0.5764705882352941" d="M 99.5 120 L 100 121.5 L 96.5 128 L 96 126.5 L 99.5 120 Z " /><path fill="rgb(31,98,170)" stroke="rgb(31,98,170)" stroke-width="1" opacity="0.5764705882352941" d="M 336.5 126 L 337.5 128 L 336.5 126 Z " /><path fill="rgb(31,98,170)" stroke="rgb(31,98,170)" stroke-width="1" opacity="0.5764705882352941" d="M 339.5 129 L 340.5 131 L 339.5 129 Z " /><path fill="rgb(31,98,170)" stroke="rgb(31,98,170)" stroke-width="1" opacity="0.5764705882352941" d="M 342.5 132 L 347.5 138 L 342.5 132 Z " /><path fill="rgb(31,98,170)" stroke="rgb(31,98,170)" stroke-width="1" opacity="0.5764705882352941" d="M 92.5 135 L 93 136.5 L 88.5 145 L 88 143.5 L 92.5 135 Z " /><path fill="rgb(31,98,170)" stroke="rgb(31,98,170)" stroke-width="1" opacity="0.5764705882352941" d="M 350.5 140 L 355.5 146 L 350.5 140 Z " /><path fill="rgb(31,98,170)" stroke="rgb(31,98,170)" stroke-width="1" opacity="0.5764705882352941" d="M 86.5 148 L 87 149.5 L 81.5 160 L 81 158.5 L 86.5 148 Z " /><path fill="rgb(31,98,170)" stroke="rgb(31,98,170)" stroke-width="1" opacity="0.5764705882352941" d="M 358.5 148 L 363.5 154 L 358.5 148 Z " /><path fill="rgb(31,98,170)" stroke="rgb(31,98,170)" stroke-width="1" opacity="0.5764705882352941" d="M 366.5 156 L 371.5 162 L 366.5 156 Z " /><path fill="rgb(31,98,170)" stroke="rgb(31,98,170)" stroke-width="1" opacity="0.5764705882352941" d="M 79.5 163 L 80 164.5 L 74.5 175 L 74 173.5 L 79.5 163 Z " /><path fill="rgb(31,98,170)" stroke="rgb(31,98,170)" stroke-width="1" opacity="0.5764705882352941" d="M 374.5 164 L 379.5 170 L 374.5 164 Z " /><path fill="rgb(31,98,170)" stroke="rgb(31,98,170)" stroke-width="1" opacity="0.5764705882352941" d="M 382.5 172 L 387.5 178 L 382.5 172 Z " /><path fill="rgb(31,98,170)" stroke="rgb(31,98,170)" stroke-width="1" opacity="0.5764705882352941" d="M 72.5 178 L 73 179.5 L 67.5 190 L 67 188.5 L 72.5 178 Z " /><path fill="rgb(31,98,170)" stroke="rgb(31,98,170)" stroke-width="1" opacity="0.5764705882352941" d="M 390.5 180 L 395.5 186 L 390.5 180 Z " /><path fill="rgb(31,98,170)" stroke="rgb(31,98,170)" stroke-width="1" opacity="0.5764705882352941" d="M 398.5 188 L 403.5 194 L 398.5 188 Z " /><path fill="rgb(31,98,170)" stroke="rgb(31,98,170)" stroke-width="1" opacity="0.5764705882352941" d="M 66.5 191 L 67 192.5 L 59.5 207 L 59 205.5 L 66.5 191 Z " /><path fill="rgb(31,98,170)" stroke="rgb(31,98,170)" stroke-width="1" opacity="0.5764705882352941" d="M 406.5 196 L 407.5 198 L 406.5 196 Z " /><path fill="rgb(31,98,170)" stroke="rgb(31,98,170)" stroke-width="1" opacity="0.5764705882352941" d="M 410.5 200 L 411.5 202 L 410.5 200 Z " /><path fill="rgb(31,98,170)" stroke="rgb(31,98,170)" stroke-width="1" opacity="0.5764705882352941" d="M 414.5 204 L 419.5 210 L 414.5 204 Z " /><path fill="rgb(31,98,170)" stroke="rgb(31,98,170)" stroke-width="1" opacity="0.5764705882352941" d="M 58.5 208 L 59 209.5 L 53.5 220 L 53 218.5 L 58.5 208 Z " /><path fill="rgb(31,98,170)" stroke="rgb(31,98,170)" stroke-width="1" opacity="0.5764705882352941" d="M 50.5 225 L 51 226.5 L 45.5 237 L 45 235.5 L 50.5 225 Z " /><path fill="rgb(31,98,170)" stroke="rgb(31,98,170)" stroke-width="1" opacity="0.5764705882352941" d="M 44.5 238 L 45 239.5 L 39.5 252 L 39 249.5 L 44.5 238 Z " /><path fill="rgb(31,98,170)" stroke="rgb(31,98,170)" stroke-width="1" opacity="0.5764705882352941" d="M 38.5 253 L 39 258.5 L 38 258.5 L 38.5 253 Z " /><path fill="rgb(31,98,170)" stroke="rgb(31,98,170)" stroke-width="1" opacity="0.5764705882352941" d="M 38.5 263 L 39 269.5 L 38 269.5 L 38.5 263 Z " /><path fill="rgb(31,98,170)" stroke="rgb(31,98,170)" stroke-width="1" opacity="0.5764705882352941" d="M 39.5 271 L 46 285.5 L 111 350.5 L 45 285.5 Q 39.3 279.7 39.5 271 Z " /><path fill="rgb(17,102,189)" stroke="rgb(17,102,189)" stroke-width="1" opacity="0.996078431372549" d="M 104 120 L 111.5 120 L 112 121.5 L 113 123.5 L 112 128 Q 115 126.8 114 130.5 Q 115.6 135.3 122 134 L 124 138 L 126.5 138 L 130 140.5 L 130 144 L 134 144 L 134 148 L 135.5 148 Q 137.4 151.8 144 150 Q 142.1 155.6 147 154 L 147 160 L 150 160 L 150 164 L 151.5 164 Q 153.4 167.8 160 166 L 161 176 L 166 176 L 166 180 L 167.5 180 Q 169.4 183.8 176 182 L 177 192 L 182 192 L 182 196 L 183.5 196 Q 185.4 199.8 192 198 L 193 208 L 198 208 L 198 212 L 199.5 212 Q 201.4 215.8 208 214 L 209 224 L 214 224 L 214 228 L 215.5 228 Q 217.4 231.8 224 230 L 225 240 L 230 240 L 230 244 L 231.5 244 Q 233.4 247.8 240 246 L 241 256 L 246 256 L 246 260 L 247.5 260 Q 249.4 263.8 256 262 L 257 272 L 262 272 L 262 276 L 263.5 276 Q 265.4 279.8 272 278 L 273 288 L 278 288 L 278 292 L 279.5 292 Q 281.4 295.8 288 294 L 289 304 L 294 304 L 294 308 L 295.5 308 Q 297.4 311.8 304 310 L 305 320 L 310 320 L 310 324 L 311.5 324 Q 313.4 327.8 320 326 L 321 336 L 326 336 L 326 340 L 327.5 340 Q 329.4 343.8 336 342 L 337 352 L 342 352 L 342 356 L 343.5 356 Q 345.4 359.8 352 358 L 352 365 L 355.5 365 L 356.5 366 L 413.5 366 L 415.5 365 L 418 366 L 418.5 211 L 419 367 L 415.5 368 L 399.5 368 L 398.5 369 L 396.5 368 L 394.5 369 L 393.5 368 L 383.5 368 L 381.5 368 L 378.5 369 L 377.5 368 L 367.5 368 L 365.5 368 L 362.5 369 L 351.5 367 L 348 368 L 345.5 364 Q 343.3 364.8 344 362.5 L 333.5 352 L 332 352 L 329.5 348 Q 327.3 348.8 328 346.5 L 317.5 336 L 316 336 L 313.5 332 Q 311.3 332.8 312 330.5 L 301.5 320 L 300 320 L 297.5 316 Q 295.3 316.8 296 314.5 L 285.5 304 L 284 304 L 281.5 300 Q 279.3 300.8 280 298.5 L 269.5 288 L 268 288 L 265.5 284 Q 263.3 284.8 264 282.5 L 253.5 272 L 252 272 L 249.5 268 Q 247.3 268.8 248 266.5 L 237.5 256 L 236 256 L 233.5 252 Q 231.3 252.8 232 250.5 L 221.5 240 L 220 240 L 217.5 236 Q 215.3 236.8 216 234.5 L 205.5 224 L 204 224 L 201.5 220 Q 199.3 220.8 200 218.5 L 189.5 208 L 188 208 L 185.5 204 Q 183.3 204.8 184 202.5 L 173.5 192 L 172 192 L 169.5 188 Q 167.3 188.8 168 186.5 L 157.5 176 L 156 176 L 153.5 172 Q 151.3 172.8 152 170.5 L 141.5 160 L 140 160 L 137.5 156 Q 135.3 156.8 136 154.5 L 128 148 L 126.5 144 L 124 142.5 L 122.5 140 Q 119.2 141.1 120 138.5 L 116 136 L 113.5 132 Q 110.9 132.8 112 129.5 L 108 126.5 L 106.5 124 L 103 122.5 L 104 120 Z M 111 121 Q 108 125 112 124 L 111 121 Z " /><path fill="rgb(17,102,189)" stroke="rgb(17,102,189)" stroke-width="1" opacity="0.996078431372549" d="M 128 120 L 315.5 120 L 320.5 121 L 324 123.5 L 322.5 123 L 318 124 L 318 128 L 312 128 Q 314.2 122.4 308.5 124 L 306.5 124 Q 301.9 122.8 304 128 L 296 128 Q 298.2 122.4 292.5 124 L 290.5 124 Q 285.9 122.8 288 128 L 280 128 Q 282.2 122.4 276.5 124 L 274.5 124 Q 269.9 122.8 272 128 L 264 128 Q 266.2 122.4 260.5 124 L 258.5 124 Q 253.9 122.8 256 128 L 248 128 Q 250.2 122.4 244.5 124 L 242.5 124 Q 237.9 122.8 240 128 L 232 128 Q 234.2 122.4 228.5 124 L 226.5 124 Q 221.9 122.8 224 128 L 216 128 Q 218.2 122.4 212.5 124 L 210.5 124 Q 205.9 122.8 208 128 L 200 128 Q 202.2 122.4 196.5 124 L 194.5 124 Q 189.9 122.8 192 128 L 184 128 Q 186.2 122.4 180.5 124 L 178.5 124 Q 173.9 122.8 176 128 L 168 128 Q 170.2 122.4 164.5 124 L 161.5 122 L 159.5 124 L 148.5 124 L 146.5 124 Q 141.9 122.8 144 128 L 140 128 L 140 121 L 134.5 121 L 132 122 Q 133.1 124.7 130.5 124 L 128 123 L 127 127 L 122 128 L 122 124 Q 116.8 125.7 118 122 L 127.5 122 L 128 120 Z " /><path fill="rgb(17,102,189)" stroke="rgb(17,102,189)" stroke-width="1" opacity="0.996078431372549" d="M 99.5 122 L 100 123.5 L 97.5 127 L 98 125.5 L 99.5 122 Z " /><path fill="rgb(17,102,189)" stroke="rgb(17,102,189)" stroke-width="1" opacity="0.996078431372549" d="M 96.5 128 L 97 129.5 L 96 132.5 L 96.5 134 L 95 130.5 L 96.5 128 Z " /><path fill="rgb(17,102,189)" stroke="rgb(17,102,189)" stroke-width="1" opacity="0.996078431372549" d="M 335 130 L 337.5 131 L 339 130.5 L 338 134 L 342 134 L 342 135.5 Q 340 140 338 136.5 Q 339.1 133.2 336.5 134 L 334 133.5 L 335 130 Z " /><path fill="rgb(17,102,189)" stroke="rgb(17,102,189)" stroke-width="1" opacity="0.996078431372549" d="M 95.5 138 Q 98.8 136.9 98 139.5 L 96.5 139 L 95.5 138 Z " /><path fill="rgb(17,102,189)" stroke="rgb(17,102,189)" stroke-width="1" opacity="0.996078431372549" d="M 344 138 Q 346.7 136.9 346 139.5 L 347.5 139 Q 349.8 138.3 349 140.5 L 349 142.5 Q 349.8 144.8 347.5 144 L 344.5 140 L 343 140.5 L 344 138 Z " /><path fill="rgb(17,102,189)" stroke="rgb(17,102,189)" stroke-width="1" opacity="0.996078431372549" d="M 91.5 139 L 93.5 143 L 98 142 Q 97.3 145.1 100 144.5 L 100 164 Q 95.9 165.7 97 161.5 L 93 160 L 92.5 144 L 90 145 L 89.5 148 L 88 145.5 L 91.5 139 Z M 96 144 Q 98 150 97 161 L 98 161 L 98 145 L 96 144 Z M 94 149 L 94 158 L 96 158 L 96 150 L 94 149 Z " /><path fill="rgb(17,102,189)" stroke="rgb(17,102,189)" stroke-width="1" opacity="0.996078431372549" d="M 87.5 147 L 90 153 L 86 151.5 L 87.5 147 Z " /><path fill="rgb(17,102,189)" stroke="rgb(17,102,189)" stroke-width="1" opacity="0.996078431372549" d="M 353.5 147 Q 358.8 145.3 357 150.5 L 355.5 152 L 352 148.5 L 353.5 147 Z " /><path fill="rgb(17,102,189)" stroke="rgb(17,102,189)" stroke-width="1" opacity="0.996078431372549" d="M 363.5 155 Q 365.8 154.3 365 156.5 L 363.5 160 L 361 156 L 363.5 155 Z " /><path fill="rgb(17,102,189)" stroke="rgb(17,102,189)" stroke-width="1" opacity="0.996078431372549" d="M 86.5 157 L 90 158.5 L 88.5 164 Q 87.3 160.8 81.5 162 L 81.5 163 L 83 163.5 Q 81.5 166.5 80 163.5 L 82.5 159 L 86.5 157 Z " /><path fill="rgb(17,102,189)" stroke="rgb(17,102,189)" stroke-width="1" opacity="0.996078431372549" d="M 368.5 161 Q 369.6 163.8 373 163 Q 372.3 166.4 375 167.5 L 371.5 169 L 370 166 L 367 164.5 L 368.5 161 Z " /><path fill="rgb(17,102,189)" stroke="rgb(17,102,189)" stroke-width="1" opacity="0.996078431372549" d="M 91.5 166 L 94 166 Q 92.9 168.7 95.5 168 Q 96.6 165.3 100 166 L 100 331.5 L 101 332.5 Q 99.5 335.5 98 332.5 L 97.5 331 L 93.5 333 Q 95.1 331.3 92 329.5 Q 91.3 325.8 93.5 325 L 96.5 330 L 99 325.5 L 99 180 Q 94.1 181.6 96 176 L 87 176 L 87 170.5 L 88 168 L 91.5 166 Z " /><path fill="rgb(17,102,189)" stroke="rgb(17,102,189)" stroke-width="1" opacity="0.996078431372549" d="M 379.5 171 Q 381.8 170.3 381 172.5 L 379.5 176 L 377 172 L 379.5 171 Z " /><path fill="rgb(17,102,189)" stroke="rgb(17,102,189)" stroke-width="1" opacity="0.996078431372549" d="M 76.5 174 L 78 178 L 75 177.5 L 75.5 176 L 74 175.5 L 76.5 174 Z " /><path fill="rgb(17,102,189)" stroke="rgb(17,102,189)" stroke-width="1" opacity="0.996078431372549" d="M 384.5 177 Q 385.6 179.7 389 179 Q 388.3 182.4 391 183.5 L 387.5 185 L 386 182 L 383 180.5 L 384.5 177 Z " /><path fill="rgb(17,102,189)" stroke="rgb(17,102,189)" stroke-width="1" opacity="0.996078431372549" d="M 72.5 183 L 74 183.5 L 71.5 188 Q 67.8 189 69 186 Q 71.7 187.1 71 184.5 L 72.5 183 Z " /><path fill="rgb(17,102,189)" stroke="rgb(17,102,189)" stroke-width="1" opacity="0.996078431372549" d="M 395.5 187 Q 397.8 186.3 397 188.5 L 395.5 192 L 393 188 L 395.5 187 Z " /><path fill="rgb(17,102,189)" stroke="rgb(17,102,189)" stroke-width="1" opacity="0.996078431372549" d="M 69.5 191 Q 72.3 192.3 70 193.5 L 69.5 195 L 69 193.5 L 69.5 191 Z " /><path fill="rgb(17,102,189)" stroke="rgb(17,102,189)" stroke-width="1" opacity="0.996078431372549" d="M 400.5 193 Q 401.6 195.8 405 195 Q 404.3 198.4 407 199.5 L 403.5 201 L 402 198 L 399 196.5 L 400.5 193 Z " /><path fill="rgb(17,102,189)" stroke="rgb(17,102,189)" stroke-width="1" opacity="0.996078431372549" d="M 64.5 198 Q 67.3 197.4 66 203.5 L 65 205.5 L 66 207.5 L 64 208.5 Q 64.8 206.3 62.5 207 L 62.5 209 Q 59.8 207.8 62 206.5 L 61 203.5 L 63 202.5 L 63 200.5 L 64.5 198 Z " /><path fill="rgb(17,102,189)" stroke="rgb(17,102,189)" stroke-width="1" opacity="0.996078431372549" d="M 411.5 203 Q 413.8 202.3 413 204.5 L 411.5 208 L 409 204 L 411.5 203 Z " /><path fill="rgb(17,102,189)" stroke="rgb(17,102,189)" stroke-width="1" opacity="0.996078431372549" d="M 56 214 L 59 215.5 L 57 217.5 L 57 221.5 L 54 227.5 L 51.5 230 L 49 229.5 L 54 221.5 L 54 219.5 L 56 214 Z " /><path fill="rgb(17,102,189)" stroke="rgb(17,102,189)" stroke-width="1" opacity="0.996078431372549" d="M 62 215 L 66 216 Q 67.2 219.7 62 218 L 62 215 Z " /><path fill="rgb(17,102,189)" stroke="rgb(17,102,189)" stroke-width="1" opacity="0.996078431372549" d="M 59.5 234 L 64 234 L 64 240 L 58 240 L 58 235.5 L 59.5 234 Z " /><path fill="rgb(17,102,189)" stroke="rgb(17,102,189)" stroke-width="1" opacity="0.996078431372549" d="M 43.5 242 L 44 245 L 42 244.5 L 43.5 242 Z " /><path fill="rgb(17,102,189)" stroke="rgb(17,102,189)" stroke-width="1" opacity="0.996078431372549" d="M 45 242 Q 49.1 240.7 48 244 Q 43.9 245.3 45 242 Z " /><path fill="rgb(17,102,189)" stroke="rgb(17,102,189)" stroke-width="1" opacity="0.996078431372549" d="M 44 246 Q 47.8 245 49 247.5 L 47.5 250 Q 41.8 251.6 44 246 Z " /><path fill="rgb(17,102,189)" stroke="rgb(17,102,189)" stroke-width="1" opacity="0.996078431372549" d="M 39.5 270 L 42 270.5 Q 43 274.3 40 273 L 39.5 270 Z " /><path fill="rgb(17,102,189)" stroke="rgb(17,102,189)" stroke-width="1" opacity="0.996078431372549" d="M 48 285 Q 51.3 283.9 50 288 Q 46.7 289.1 48 285 Z " /><path fill="rgb(17,102,189)" stroke="rgb(17,102,189)" stroke-width="1" opacity="0.996078431372549" d="M 53.5 286 L 54 288 L 58 290.5 L 56.5 293 L 54 291.5 L 53.5 286 Z " /><path fill="rgb(17,102,189)" stroke="rgb(17,102,189)" stroke-width="1" opacity="0.996078431372549" d="M 60 294 L 64 296.5 L 65 299.5 L 64.5 301 Q 67.5 300.2 66 304 Q 62.7 305.1 64 301 L 61.5 301 Q 63.1 299.3 60 297.5 L 60 294 Z " /><path fill="rgb(17,102,189)" stroke="rgb(17,102,189)" stroke-width="1" opacity="0.996078431372549" d="M 69.5 302 L 70 304 L 74 306.5 L 72.5 309 L 70 307.5 L 69.5 302 Z " /><path fill="rgb(17,102,189)" stroke="rgb(17,102,189)" stroke-width="1" opacity="0.996078431372549" d="M 76 310 L 80 312.5 L 81 315.5 L 80.5 317 Q 83.5 316.2 82 320 Q 78.7 321.1 80 317 L 77.5 317 Q 79.1 315.3 76 313.5 L 76 310 Z " /><path fill="rgb(17,102,189)" stroke="rgb(17,102,189)" stroke-width="1" opacity="0.996078431372549" d="M 85.5 318 L 86 320 L 90 322.5 L 88.5 325 L 86 323.5 L 85.5 318 Z " /><path fill="rgb(17,102,189)" stroke="rgb(17,102,189)" stroke-width="1" opacity="0.996078431372549" d="M 101.5 336 L 103 340.5 L 102 340.5 L 101.5 336 Z " /><path fill="rgb(19,101,192)" stroke="rgb(19,101,192)" stroke-width="1" opacity="0.996078431372549" d="M 103.5 120 L 104 122 L 102 121.5 L 103.5 120 Z " /><path fill="rgb(19,101,192)" stroke="rgb(19,101,192)" stroke-width="1" opacity="0.996078431372549" d="M 110.5 121 L 112 124 Q 108.5 125.1 110.5 121 Z " /><path fill="rgb(19,101,192)" stroke="rgb(19,101,192)" stroke-width="1" opacity="0.996078431372549" d="M 113 122 L 118 122 L 118 124 L 113 124 L 113 122 Z " /><path fill="rgb(19,101,192)" stroke="rgb(19,101,192)" stroke-width="1" opacity="0.996078431372549" d="M 161.5 122 Q 163.5 124.8 168 124 L 167.5 128 L 148 128 L 148 124 L 159.5 124 L 161.5 122 Z " /><path fill="rgb(19,101,192)" stroke="rgb(19,101,192)" stroke-width="1" opacity="0.996078431372549" d="M 323.5 122 L 328 123.5 L 326 124 L 326 128 L 318 128 L 318 124 L 319.5 124 L 323.5 122 Z " /><path fill="rgb(19,101,192)" stroke="rgb(19,101,192)" stroke-width="1" opacity="0.996078431372549" d="M 179.5 123 L 184 124 L 184 128 L 176 128 Q 173.9 122.8 178.5 124 L 179.5 123 Z " /><path fill="rgb(19,101,192)" stroke="rgb(19,101,192)" stroke-width="1" opacity="0.996078431372549" d="M 195.5 123 L 200 124 L 200 128 L 192 128 Q 189.9 122.8 194.5 124 L 195.5 123 Z " /><path fill="rgb(19,101,192)" stroke="rgb(19,101,192)" stroke-width="1" opacity="0.996078431372549" d="M 211.5 123 L 216 124 L 216 128 L 208 128 Q 205.9 122.8 210.5 124 L 211.5 123 Z " /><path fill="rgb(19,101,192)" stroke="rgb(19,101,192)" stroke-width="1" opacity="0.996078431372549" d="M 227.5 123 L 232 124 L 232 128 L 224 128 Q 221.9 122.8 226.5 124 L 227.5 123 Z " /><path fill="rgb(19,101,192)" stroke="rgb(19,101,192)" stroke-width="1" opacity="0.996078431372549" d="M 243.5 123 L 248 124 L 248 128 L 240 128 Q 237.9 122.8 242.5 124 L 243.5 123 Z " /><path fill="rgb(19,101,192)" stroke="rgb(19,101,192)" stroke-width="1" opacity="0.996078431372549" d="M 259.5 123 L 264 124 L 264 128 L 256 128 Q 253.9 122.8 258.5 124 L 259.5 123 Z " /><path fill="rgb(19,101,192)" stroke="rgb(19,101,192)" stroke-width="1" opacity="0.996078431372549" d="M 275.5 123 L 280 124 L 280 128 L 272 128 Q 269.9 122.8 274.5 124 L 275.5 123 Z " /><path fill="rgb(19,101,192)" stroke="rgb(19,101,192)" stroke-width="1" opacity="0.996078431372549" d="M 291.5 123 L 296 124 L 296 128 L 288 128 Q 285.9 122.8 290.5 124 L 291.5 123 Z " /><path fill="rgb(19,101,192)" stroke="rgb(19,101,192)" stroke-width="1" opacity="0.996078431372549" d="M 307.5 123 L 312 124 L 312 128 L 304 128 Q 301.9 122.8 306.5 124 L 307.5 123 Z " /><path fill="rgb(19,101,192)" stroke="rgb(19,101,192)" stroke-width="1" opacity="0.996078431372549" d="M 130 124 Q 133.7 122.8 132 128 Q 128.3 129.2 130 124 Z " /><path fill="rgb(19,101,192)" stroke="rgb(19,101,192)" stroke-width="1" opacity="0.996078431372549" d="M 331.5 125 L 332 126.5 L 331 128.5 L 332 132 Q 328 133.4 330 126.5 L 331.5 125 Z " /><path fill="rgb(19,101,192)" stroke="rgb(19,101,192)" stroke-width="1" opacity="0.996078431372549" d="M 97.5 128 L 98 133.5 L 97 135.5 L 98 137.5 L 95 138.5 L 95.5 140 L 94 138.5 L 96 136.5 L 96 132.5 L 97.5 128 Z " /><path fill="rgb(19,101,192)" stroke="rgb(19,101,192)" stroke-width="1" opacity="0.996078431372549" d="M 110.5 128 L 111.5 130 L 110.5 128 Z " /><path fill="rgb(19,101,192)" stroke="rgb(19,101,192)" stroke-width="1" opacity="0.996078431372549" d="M 114 128 Q 117.3 126.7 116 131.5 L 114 130.5 L 114 128 Z " /><path fill="rgb(19,101,192)" stroke="rgb(19,101,192)" stroke-width="1" opacity="0.996078431372549" d="M 334.5 131 L 333.5 133 L 334.5 131 Z " /><path fill="rgb(19,101,192)" stroke="rgb(19,101,192)" stroke-width="1" opacity="0.996078431372549" d="M 338 131 L 341 132.5 L 337.5 135 L 338 133.5 L 338 131 Z " /><path fill="rgb(19,101,192)" stroke="rgb(19,101,192)" stroke-width="1" opacity="0.996078431372549" d="M 341.5 136 L 340 138.5 Q 340.9 141.5 336.5 140 L 338.5 137 Q 340 139.5 341.5 136 Z " /><path fill="rgb(19,101,192)" stroke="rgb(19,101,192)" stroke-width="1" opacity="0.996078431372549" d="M 122.5 140 L 123.5 142 L 122.5 140 Z " /><path fill="rgb(19,101,192)" stroke="rgb(19,101,192)" stroke-width="1" opacity="0.996078431372549" d="M 349.5 143 L 352 144.5 L 350.5 145 L 349.5 143 Z " /><path fill="rgb(19,101,192)" stroke="rgb(19,101,192)" stroke-width="1" opacity="0.996078431372549" d="M 92.5 144 L 93 160 L 95 160.5 L 94 166 L 88 168 L 87 176 L 83 176 L 83 174.5 L 82 172 L 78.5 173 L 76 171.5 L 77 169 L 80 167.5 L 83 163.5 L 81 162.5 L 86.5 162 L 89 163.5 L 89.5 161 L 91.5 164 L 92.5 144 Z M 82 168 Q 80 173 84 172 Q 86 167 82 168 Z " /><path fill="rgb(19,101,192)" stroke="rgb(19,101,192)" stroke-width="1" opacity="0.996078431372549" d="M 126.5 144 L 127.5 146 L 126.5 144 Z " /><path fill="rgb(19,101,192)" stroke="rgb(19,101,192)" stroke-width="1" opacity="0.996078431372549" d="M 144 144 L 159.5 144 L 160 148 L 152 148 Q 154 154 148 152 L 148 158.5 L 148.5 160 L 147 159.5 L 147 154 L 144 153.5 L 144 144 Z " /><path fill="rgb(19,101,192)" stroke="rgb(19,101,192)" stroke-width="1" opacity="0.996078431372549" d="M 352 146 L 354 146.5 Q 350.9 148.3 352.5 150 Q 349.8 148.8 352 147.5 L 352 146 Z " /><path fill="rgb(19,101,192)" stroke="rgb(19,101,192)" stroke-width="1" opacity="0.996078431372549" d="M 88 148 Q 91 146.8 90 150.5 L 88 149.5 L 88 148 Z " /><path fill="rgb(19,101,192)" stroke="rgb(19,101,192)" stroke-width="1" opacity="0.996078431372549" d="M 94.5 149 L 95 157.5 L 94 157.5 L 94.5 149 Z " /><path fill="rgb(19,101,192)" stroke="rgb(19,101,192)" stroke-width="1" opacity="0.996078431372549" d="M 357.5 150 L 361 151.5 L 355.5 153 L 354.5 151 Q 356 153.5 357.5 150 Z " /><path fill="rgb(19,101,192)" stroke="rgb(19,101,192)" stroke-width="1" opacity="0.996078431372549" d="M 85 152 L 90 153.5 L 84.5 155 L 85 153.5 L 85 152 Z " /><path fill="rgb(19,101,192)" stroke="rgb(19,101,192)" stroke-width="1" opacity="0.996078431372549" d="M 361.5 155 L 363 155.5 L 360.5 157 L 361.5 155 Z " /><path fill="rgb(19,101,192)" stroke="rgb(19,101,192)" stroke-width="1" opacity="0.996078431372549" d="M 87.5 156 Q 90.8 154.9 90 157.5 L 88.5 157 L 87.5 156 Z " /><path fill="rgb(19,101,192)" stroke="rgb(19,101,192)" stroke-width="1" opacity="0.996078431372549" d="M 364.5 157 L 366.5 160 L 368 160.5 L 366.5 161 Q 362.9 159.9 364.5 157 Z " /><path fill="rgb(19,101,192)" stroke="rgb(19,101,192)" stroke-width="1" opacity="0.996078431372549" d="M 160 168 L 164 168 L 164 176 Q 159.9 177.7 161 173.5 L 160 168 Z " /><path fill="rgb(19,101,192)" stroke="rgb(19,101,192)" stroke-width="1" opacity="0.996078431372549" d="M 377.5 171 L 379 171.5 L 376.5 173 L 377.5 171 Z " /><path fill="rgb(19,101,192)" stroke="rgb(19,101,192)" stroke-width="1" opacity="0.996078431372549" d="M 380.5 173 L 382.5 176 L 384 176.5 L 382.5 177 Q 378.9 175.9 380.5 173 Z " /><path fill="rgb(19,101,192)" stroke="rgb(19,101,192)" stroke-width="1" opacity="0.996078431372549" d="M 72 181 L 75 182.5 L 74 187.5 L 75 189.5 L 72.5 191 L 71 188.5 L 74 183.5 L 72 183 L 72 181 Z " /><path fill="rgb(19,101,192)" stroke="rgb(19,101,192)" stroke-width="1" opacity="0.996078431372549" d="M 176 184 L 180 184 L 180 192 Q 175.9 193.7 177 189.5 L 176 184 Z " /><path fill="rgb(19,101,192)" stroke="rgb(19,101,192)" stroke-width="1" opacity="0.996078431372549" d="M 393.5 187 L 395 187.5 L 392.5 189 L 393.5 187 Z " /><path fill="rgb(19,101,192)" stroke="rgb(19,101,192)" stroke-width="1" opacity="0.996078431372549" d="M 396.5 189 L 398.5 192 L 400 192.5 L 398.5 193 Q 394.9 191.9 396.5 189 Z " /><path fill="rgb(19,101,192)" stroke="rgb(19,101,192)" stroke-width="1" opacity="0.996078431372549" d="M 64.5 197 Q 69.1 195.7 67 201.5 L 66 201.5 Q 67.5 197.1 64.5 198 L 64.5 197 Z " /><path fill="rgb(19,101,192)" stroke="rgb(19,101,192)" stroke-width="1" opacity="0.996078431372549" d="M 192 200 L 196 200 L 196 208 Q 191.9 209.7 193 205.5 L 192 200 Z " /><path fill="rgb(19,101,192)" stroke="rgb(19,101,192)" stroke-width="1" opacity="0.996078431372549" d="M 409.5 203 L 411 203.5 L 408.5 205 L 409.5 203 Z " /><path fill="rgb(19,101,192)" stroke="rgb(19,101,192)" stroke-width="1" opacity="0.996078431372549" d="M 61.5 204 L 60.5 206 L 61.5 204 Z " /><path fill="rgb(19,101,192)" stroke="rgb(19,101,192)" stroke-width="1" opacity="0.996078431372549" d="M 412.5 205 L 414.5 208 L 416 208.5 L 414 209.5 L 412.5 205 Z " /><path fill="rgb(19,101,192)" stroke="rgb(19,101,192)" stroke-width="1" opacity="0.996078431372549" d="M 60.5 210 L 61 211.5 L 60 214 Q 56.2 215.5 57 212.5 L 60 211.5 L 60.5 210 Z " /><path fill="rgb(19,101,192)" stroke="rgb(19,101,192)" stroke-width="1" opacity="0.996078431372549" d="M 414 211 L 416 211.5 L 416 364.5 L 417.5 365 L 417.5 366 L 414.5 365 L 413.5 366 L 356.5 366 L 352 365 Q 349.6 357.9 356 360 L 356.5 365 L 414 365 L 414 211 Z " /><path fill="rgb(19,101,192)" stroke="rgb(19,101,192)" stroke-width="1" opacity="0.996078431372549" d="M 63.5 214 Q 67.3 213 66 216 L 63.5 214 Z " /><path fill="rgb(19,101,192)" stroke="rgb(19,101,192)" stroke-width="1" opacity="0.996078431372549" d="M 60 215 L 62 215 Q 60.5 218.8 63.5 218 L 63.5 219 L 60 216.5 L 60 215 Z " /><path fill="rgb(19,101,192)" stroke="rgb(19,101,192)" stroke-width="1" opacity="0.996078431372549" d="M 208 216 L 212 216 L 212 224 Q 207.9 225.7 209 221.5 L 208 216 Z " /><path fill="rgb(19,101,192)" stroke="rgb(19,101,192)" stroke-width="1" opacity="0.996078431372549" d="M 57.5 217 L 58 220.5 L 57 220.5 L 57.5 217 Z " /><path fill="rgb(19,101,192)" stroke="rgb(19,101,192)" stroke-width="1" opacity="0.996078431372549" d="M 54.5 227 L 56 229.5 L 52.5 232 L 50 231 Q 51.3 235.1 48 234 L 49.5 230 Q 54 230.5 54.5 227 Z " /><path fill="rgb(19,101,192)" stroke="rgb(19,101,192)" stroke-width="1" opacity="0.996078431372549" d="M 224 232 L 228 232 L 228 240 Q 223.9 241.7 225 237.5 L 224 232 Z " /><path fill="rgb(19,101,192)" stroke="rgb(19,101,192)" stroke-width="1" opacity="0.996078431372549" d="M 47.5 240 L 50 243.5 L 50 256 L 48 256 L 48 251 L 45.5 251 L 45.5 250 L 49 248.5 L 46 244.5 L 48 244 Q 49.1 241.3 46.5 242 L 47.5 240 Z " /><path fill="rgb(19,101,192)" stroke="rgb(19,101,192)" stroke-width="1" opacity="0.996078431372549" d="M 240 248 L 244 248 L 244 256 Q 239.9 257.7 241 253.5 L 240 248 Z " /><path fill="rgb(19,101,192)" stroke="rgb(19,101,192)" stroke-width="1" opacity="0.996078431372549" d="M 41.5 249 Q 44.1 251.4 43 257.5 L 42 258.5 L 42 269.5 L 43 271.5 L 42 271.5 L 41.5 270 L 40 270.5 L 40 251.5 L 41.5 249 Z " /><path fill="rgb(19,101,192)" stroke="rgb(19,101,192)" stroke-width="1" opacity="0.996078431372549" d="M 256 264 L 260 264 L 260 272 Q 255.9 273.7 257 269.5 L 256 264 Z " /><path fill="rgb(19,101,192)" stroke="rgb(19,101,192)" stroke-width="1" opacity="0.996078431372549" d="M 272 280 L 276 280 L 276 288 Q 271.9 289.7 273 285.5 L 272 280 Z " /><path fill="rgb(19,101,192)" stroke="rgb(19,101,192)" stroke-width="1" opacity="0.996078431372549" d="M 52.5 284 Q 54.8 283.3 54 285.5 L 52.5 284 Z " /><path fill="rgb(19,101,192)" stroke="rgb(19,101,192)" stroke-width="1" opacity="0.996078431372549" d="M 56.5 286 Q 61.3 284.7 60 288 Q 57.3 286.9 58 289.5 L 59 291.5 L 57 292.5 L 58 290.5 L 54 288 L 53.5 291 L 53 288.5 L 56.5 286 Z " /><path fill="rgb(19,101,192)" stroke="rgb(19,101,192)" stroke-width="1" opacity="0.996078431372549" d="M 61.5 293 L 65 297.5 L 64 297.5 L 61.5 293 Z " /><path fill="rgb(19,101,192)" stroke="rgb(19,101,192)" stroke-width="1" opacity="0.996078431372549" d="M 288 296 L 292 296 L 292 304 Q 287.9 305.7 289 301.5 L 288 296 Z " /><path fill="rgb(19,101,192)" stroke="rgb(19,101,192)" stroke-width="1" opacity="0.996078431372549" d="M 60.5 298 L 61.5 300 L 60.5 298 Z " /><path fill="rgb(19,101,192)" stroke="rgb(19,101,192)" stroke-width="1" opacity="0.996078431372549" d="M 68.5 300 Q 70.8 299.3 70 301.5 L 68.5 300 Z " /><path fill="rgb(19,101,192)" stroke="rgb(19,101,192)" stroke-width="1" opacity="0.996078431372549" d="M 72.5 302 Q 77.3 300.7 76 304 Q 73.3 302.9 74 305.5 L 75 307.5 L 73 308.5 L 74 306.5 L 70 304 L 69.5 307 L 69 304.5 L 72.5 302 Z " /><path fill="rgb(19,101,192)" stroke="rgb(19,101,192)" stroke-width="1" opacity="0.996078431372549" d="M 77.5 309 L 81 313.5 L 80 313.5 L 77.5 309 Z " /><path fill="rgb(19,101,192)" stroke="rgb(19,101,192)" stroke-width="1" opacity="0.996078431372549" d="M 304 312 L 308 312 L 308 320 Q 303.9 321.7 305 317.5 L 304 312 Z " /><path fill="rgb(19,101,192)" stroke="rgb(19,101,192)" stroke-width="1" opacity="0.996078431372549" d="M 76.5 314 L 77.5 316 L 76.5 314 Z " /><path fill="rgb(19,101,192)" stroke="rgb(19,101,192)" stroke-width="1" opacity="0.996078431372549" d="M 84.5 316 Q 86.8 315.3 86 317.5 L 84.5 316 Z " /><path fill="rgb(19,101,192)" stroke="rgb(19,101,192)" stroke-width="1" opacity="0.996078431372549" d="M 88.5 318 Q 93.3 316.7 92 320 Q 89.3 318.9 90 321.5 L 91 323.5 L 89 324.5 L 90 322.5 L 86 320 L 85.5 323 L 85 320.5 L 88.5 318 Z " /><path fill="rgb(19,101,192)" stroke="rgb(19,101,192)" stroke-width="1" opacity="0.996078431372549" d="M 320 328 L 324 328 L 324 336 Q 319.9 337.7 321 333.5 L 320 328 Z " /><path fill="rgb(19,101,192)" stroke="rgb(19,101,192)" stroke-width="1" opacity="0.996078431372549" d="M 92.5 330 L 93.5 332 L 92.5 330 Z " /><path fill="rgb(19,101,192)" stroke="rgb(19,101,192)" stroke-width="1" opacity="0.996078431372549" d="M 336 344 L 340 344 L 340 352 Q 335.9 353.7 337 349.5 L 336 344 Z " /><path fill="rgb(20,101,192)" stroke="rgb(20,101,192)" stroke-width="1" opacity="1" d="M 134.5 121 L 140 121 L 140 128 L 144 128 Q 141.9 122.8 146.5 124 L 148 123.5 Q 147.5 128 148.5 128 L 326.5 128 L 326 126.5 Q 324.7 122.3 329.5 124 Q 332.3 125.3 330 126.5 Q 328 133.4 332 132 L 331 127.5 L 332.5 125 L 337.5 131 L 335 129.5 L 333 132.5 L 334 136 L 336.5 137 L 337 135.5 L 336.5 134 L 338 137.5 L 336.5 140 Q 340.9 141.5 340 138.5 L 342 135 L 345 136.5 L 343 140.5 L 345 141.5 L 344 144 L 346.5 143 L 351.5 145 Q 353 142.5 354.5 146 L 356 146.5 L 354.5 147 L 352 146 L 351 148.5 L 354 150 L 355.5 153 L 361 152 L 362 154.5 Q 358.9 156.3 360.5 158 Q 356.8 157 358 160 L 362.5 159 Q 364 161.5 365.5 158 L 367 158.5 L 365 159.5 L 367.5 161 L 369 160.5 L 367 164.5 L 370 166 L 371.5 169 L 377 168 L 378 170.5 Q 374.9 172.3 376.5 174 Q 372.8 173 374 176 L 378.5 175 Q 380 177.5 381.5 174 L 383 174.5 L 381 175.5 L 383.5 177 L 385 176.5 L 383 180.5 L 386 182 L 387.5 185 L 393 184 L 394 186.5 Q 390.9 188.3 392.5 190 Q 388.8 189 390 192 L 394.5 191 Q 396 193.5 397.5 190 L 399 190.5 L 397 191.5 L 399.5 193 L 401 192.5 L 399 196.5 L 402 198 L 403.5 201 L 409 200 L 410 202.5 Q 406.9 204.2 408.5 206 Q 404.8 205 406 208 L 410.5 207 Q 412 209.5 413.5 206 L 415 206.5 L 413 207.5 L 414.5 210 Q 416.2 206.3 418 209.5 L 418 364.5 L 416 365 L 416 211.5 L 414 211 L 414 365 L 356 365 L 356 360 Q 350.7 361.2 351.5 358 L 345.5 358 L 342 356 Q 343.3 350.7 340 351.5 L 340 344 Q 334.7 345.3 335.5 342 L 329.5 342 L 326 340 Q 327.2 334.7 324 335.5 L 324 328 Q 318.7 329.3 319.5 326 L 313.5 326 L 310 324 Q 311.3 318.7 308 319.5 L 308 312 Q 302.7 313.3 303.5 310 L 297.5 310 L 294 308 Q 295.3 302.7 292 303.5 L 292 296 Q 286.7 297.3 287.5 294 L 281.5 294 L 278 292 Q 279.3 286.7 276 287.5 L 276 280 Q 270.7 281.3 271.5 278 L 265.5 278 L 262 276 Q 263.3 270.7 260 271.5 L 260 264 Q 254.7 265.3 255.5 262 L 249.5 262 L 246 260 Q 247.3 254.7 244 255.5 L 244 248 Q 238.7 249.2 239.5 246 L 233.5 246 L 230 244 Q 231.3 238.7 228 239.5 L 228 232 Q 222.7 233.3 223.5 230 L 217.5 230 L 214 228 Q 215.3 222.7 212 223.5 L 212 216 Q 206.7 217.3 207.5 214 L 201.5 214 L 198 212 Q 199.3 206.7 196 207.5 L 196 200 Q 190.7 201.3 191.5 198 L 185.5 198 L 182 196 Q 183.3 190.7 180 191.5 L 180 184 Q 174.7 185.2 175.5 182 L 169.5 182 L 166 180 Q 167.3 174.7 164 175.5 L 164 168 Q 158.7 169.3 159.5 166 L 153.5 166 L 150 164 Q 151 159.8 148 158.5 L 148 152 Q 154 154 152 148 L 160 148 L 160 144 L 144.5 144 L 144 144.5 L 144 150 L 137.5 150 L 134 148 L 134 144 Q 128.4 146.2 130 140.5 L 124 138 L 122 134 L 117.5 134 Q 114.8 132.6 116 128 L 112 126.5 L 112.5 124 L 122 124 Q 119.9 129.2 124.5 128 L 127 127 L 128 123 L 130 123 L 130 128 L 132 128 L 132 122.5 L 133.5 122 L 134.5 121 Z " /><path fill="rgb(20,101,192)" stroke="rgb(20,101,192)" stroke-width="1" opacity="1" d="M 99.5 124 L 100 125.5 L 98.5 129 Q 95.3 127.3 99 125.5 L 99.5 124 Z " /><path fill="rgb(20,101,192)" stroke="rgb(20,101,192)" stroke-width="1" opacity="1" d="M 341.5 132 L 342 134 L 340 133.5 L 341.5 132 Z " /><path fill="rgb(20,101,192)" stroke="rgb(20,101,192)" stroke-width="1" opacity="1" d="M 95.5 133 L 96 134.5 L 95 135.5 L 96.5 138 Q 95.3 135.8 94 138.5 L 98 140.5 Q 98.8 142.8 96.5 142 L 93.5 143 Q 91 141.8 92 138 Q 95 139.3 94 135.5 L 95.5 133 Z M 93 140 Q 92 143 95 142 Q 96 139 93 140 Z " /><path fill="rgb(20,101,192)" stroke="rgb(20,101,192)" stroke-width="1" opacity="1" d="M 114.5 133 L 115.5 135 L 114.5 133 Z " /><path fill="rgb(20,101,192)" stroke="rgb(20,101,192)" stroke-width="1" opacity="1" d="M 117.5 136 L 119.5 139 L 117.5 136 Z " /><path fill="rgb(20,101,192)" stroke="rgb(20,101,192)" stroke-width="1" opacity="1" d="M 90 145 L 92 145.5 L 92 163.5 L 90 162.5 L 90 156 L 87.5 156 Q 85.8 159.8 84 156.5 Q 83.3 154.3 85.5 155 L 90 154 L 90 145 Z " /><path fill="rgb(20,101,192)" stroke="rgb(20,101,192)" stroke-width="1" opacity="1" d="M 95.5 149 L 96 157.5 L 95 157.5 L 95.5 149 Z " /><path fill="rgb(20,101,192)" stroke="rgb(20,101,192)" stroke-width="1" opacity="1" d="M 357.5 149 L 358.5 151 L 357.5 149 Z " /><path fill="rgb(20,101,192)" stroke="rgb(20,101,192)" stroke-width="1" opacity="1" d="M 133.5 152 L 135.5 155 L 133.5 152 Z " /><path fill="rgb(20,101,192)" stroke="rgb(20,101,192)" stroke-width="1" opacity="1" d="M 137.5 156 L 139.5 159 L 137.5 156 Z " /><path fill="rgb(20,101,192)" stroke="rgb(20,101,192)" stroke-width="1" opacity="1" d="M 95.5 160 L 97 164 Q 101.1 162.7 100 166 L 94 168 Q 92.3 161.9 95.5 160 Z " /><path fill="rgb(20,101,192)" stroke="rgb(20,101,192)" stroke-width="1" opacity="1" d="M 141.5 160 L 143.5 163 L 141.5 160 Z " /><path fill="rgb(20,101,192)" stroke="rgb(20,101,192)" stroke-width="1" opacity="1" d="M 80.5 164 L 81 165.5 L 78.5 169 L 79 167.5 L 80.5 164 Z " /><path fill="rgb(20,101,192)" stroke="rgb(20,101,192)" stroke-width="1" opacity="1" d="M 145.5 164 L 147.5 167 L 145.5 164 Z " /><path fill="rgb(20,101,192)" stroke="rgb(20,101,192)" stroke-width="1" opacity="1" d="M 82 168 Q 85.7 166.8 84 172 Q 81.3 170.9 82 173.5 L 83 176 L 95.5 176 L 96 180 L 99 180.5 L 99 325.5 L 96.5 330 L 93.5 325 Q 91 326 92 330.5 L 92.5 332 L 91 328 L 88 327.5 L 90 326.5 L 83 322.5 L 84 319 L 80 317 L 79.5 319 L 79 317.5 Q 81.8 316.8 81 312.5 L 77.5 309 L 76 310.5 L 77 315.5 L 75 314.5 Q 76.3 310.8 72.5 312 L 72.5 311 L 74 310.5 L 67 306.5 L 68 303 L 64 301 L 63.5 303 L 63 301.5 Q 65.8 300.8 65 296.5 L 61.5 293 L 60 294.5 L 61 299.5 L 59 298.5 Q 60.3 294.8 56.5 296 L 56.5 295 L 58 294.5 L 51 290.5 L 52 287 L 50 287 Q 51.1 284.3 48.5 285 L 45 283.5 L 45.5 282 Q 43.3 282.8 44 280.5 L 43 275.5 L 41 273.5 L 43 270.5 L 42 269.5 L 42 258.5 Q 44.5 257 43 251.5 L 41 248.5 L 42.5 249 L 48 251 L 48 256 L 50 256 L 50 243.5 L 47.5 240 L 45 243.5 L 46.5 246 L 43.5 247 L 43 245.5 L 44 241 Q 46.7 242.1 46 239.5 L 45.5 238 L 47 238.5 L 46 236.5 L 50 235.5 L 50 233.5 Q 48.9 230.2 51.5 231 L 53.5 232 L 56 228.5 L 54.5 226 L 58 227 Q 59.7 222.9 55.5 224 L 58 220.5 L 57 215.5 L 60 214 L 59.5 212 L 58 212.5 L 61.5 208 L 62 211 Q 64.7 212.1 64 209.5 L 66 207.5 L 67 197.5 Q 64.8 196.3 67.5 195 Q 70.8 196.1 70 193.5 L 70 191.5 L 70.5 188 L 71 191 L 75 189.5 L 74 186.5 L 75 182.5 L 73.5 180 Q 76.1 180.7 75 178 L 78 178 L 78 175.5 L 75 174.5 L 76 172 L 79.5 173 L 82 172 L 82 168 Z M 64 214 L 60 215 L 63 219 L 66 218 Q 68 213 64 214 Z M 60 234 L 58 236 L 58 240 L 64 240 L 64 234 L 60 234 Z M 53 284 L 53 291 L 56 293 L 59 292 L 58 290 Q 57 287 60 288 L 60 286 L 56 287 Q 53 288 54 284 L 53 284 Z M 69 300 L 69 307 L 72 309 L 75 308 L 74 306 Q 73 303 76 304 L 76 302 L 72 303 Q 68 304 70 300 L 69 300 Z M 85 316 L 85 323 L 88 325 L 91 324 L 90 322 Q 89 319 92 320 L 92 318 L 88 319 Q 85 320 86 316 L 85 316 Z " /><path fill="rgb(20,101,192)" stroke="rgb(20,101,192)" stroke-width="1" opacity="1" d="M 149.5 168 L 151.5 171 L 149.5 168 Z " /><path fill="rgb(20,101,192)" stroke="rgb(20,101,192)" stroke-width="1" opacity="1" d="M 153.5 172 L 155.5 175 L 153.5 172 Z " /><path fill="rgb(20,101,192)" stroke="rgb(20,101,192)" stroke-width="1" opacity="1" d="M 157.5 176 L 159.5 179 L 157.5 176 Z " /><path fill="rgb(20,101,192)" stroke="rgb(20,101,192)" stroke-width="1" opacity="1" d="M 161.5 180 L 163.5 183 L 161.5 180 Z " /><path fill="rgb(20,101,192)" stroke="rgb(20,101,192)" stroke-width="1" opacity="1" d="M 165.5 184 L 167.5 187 L 165.5 184 Z " /><path fill="rgb(20,101,192)" stroke="rgb(20,101,192)" stroke-width="1" opacity="1" d="M 169.5 188 L 171.5 191 L 169.5 188 Z " /><path fill="rgb(20,101,192)" stroke="rgb(20,101,192)" stroke-width="1" opacity="1" d="M 173.5 192 L 175.5 195 L 173.5 192 Z " /><path fill="rgb(20,101,192)" stroke="rgb(20,101,192)" stroke-width="1" opacity="1" d="M 177.5 196 L 179.5 199 L 177.5 196 Z " /><path fill="rgb(20,101,192)" stroke="rgb(20,101,192)" stroke-width="1" opacity="1" d="M 181.5 200 L 183.5 203 L 181.5 200 Z " /><path fill="rgb(20,101,192)" stroke="rgb(20,101,192)" stroke-width="1" opacity="1" d="M 185.5 204 L 187.5 207 L 185.5 204 Z " /><path fill="rgb(20,101,192)" stroke="rgb(20,101,192)" stroke-width="1" opacity="1" d="M 61.5 205 L 62 207 L 60 206.5 L 61.5 205 Z " /><path fill="rgb(20,101,192)" stroke="rgb(20,101,192)" stroke-width="1" opacity="1" d="M 189.5 208 L 191.5 211 L 189.5 208 Z " /><path fill="rgb(20,101,192)" stroke="rgb(20,101,192)" stroke-width="1" opacity="1" d="M 193.5 212 L 195.5 215 L 193.5 212 Z " /><path fill="rgb(20,101,192)" stroke="rgb(20,101,192)" stroke-width="1" opacity="1" d="M 197.5 216 L 199.5 219 L 197.5 216 Z " /><path fill="rgb(20,101,192)" stroke="rgb(20,101,192)" stroke-width="1" opacity="1" d="M 201.5 220 L 203.5 223 L 201.5 220 Z " /><path fill="rgb(20,101,192)" stroke="rgb(20,101,192)" stroke-width="1" opacity="1" d="M 205.5 224 L 207.5 227 L 205.5 224 Z " /><path fill="rgb(20,101,192)" stroke="rgb(20,101,192)" stroke-width="1" opacity="1" d="M 209.5 228 L 211.5 231 L 209.5 228 Z " /><path fill="rgb(20,101,192)" stroke="rgb(20,101,192)" stroke-width="1" opacity="1" d="M 213.5 232 L 215.5 235 L 213.5 232 Z " /><path fill="rgb(20,101,192)" stroke="rgb(20,101,192)" stroke-width="1" opacity="1" d="M 217.5 236 L 219.5 239 L 217.5 236 Z " /><path fill="rgb(20,101,192)" stroke="rgb(20,101,192)" stroke-width="1" opacity="1" d="M 221.5 240 L 223.5 243 L 221.5 240 Z " /><path fill="rgb(20,101,192)" stroke="rgb(20,101,192)" stroke-width="1" opacity="1" d="M 225.5 244 L 227.5 247 L 225.5 244 Z " /><path fill="rgb(20,101,192)" stroke="rgb(20,101,192)" stroke-width="1" opacity="1" d="M 229.5 248 L 231.5 251 L 229.5 248 Z " /><path fill="rgb(20,101,192)" stroke="rgb(20,101,192)" stroke-width="1" opacity="1" d="M 233.5 252 L 235.5 255 L 233.5 252 Z " /><path fill="rgb(20,101,192)" stroke="rgb(20,101,192)" stroke-width="1" opacity="1" d="M 237.5 256 L 239.5 259 L 237.5 256 Z " /><path fill="rgb(20,101,192)" stroke="rgb(20,101,192)" stroke-width="1" opacity="1" d="M 241.5 260 L 243.5 263 L 241.5 260 Z " /><path fill="rgb(20,101,192)" stroke="rgb(20,101,192)" stroke-width="1" opacity="1" d="M 245.5 264 L 247.5 267 L 245.5 264 Z " /><path fill="rgb(20,101,192)" stroke="rgb(20,101,192)" stroke-width="1" opacity="1" d="M 249.5 268 L 251.5 271 L 249.5 268 Z " /><path fill="rgb(20,101,192)" stroke="rgb(20,101,192)" stroke-width="1" opacity="1" d="M 253.5 272 L 255.5 275 L 253.5 272 Z " /><path fill="rgb(20,101,192)" stroke="rgb(20,101,192)" stroke-width="1" opacity="1" d="M 257.5 276 L 259.5 279 L 257.5 276 Z " /><path fill="rgb(20,101,192)" stroke="rgb(20,101,192)" stroke-width="1" opacity="1" d="M 261.5 280 L 263.5 283 L 261.5 280 Z " /><path fill="rgb(20,101,192)" stroke="rgb(20,101,192)" stroke-width="1" opacity="1" d="M 265.5 284 L 267.5 287 L 265.5 284 Z " /><path fill="rgb(20,101,192)" stroke="rgb(20,101,192)" stroke-width="1" opacity="1" d="M 269.5 288 L 271.5 291 L 269.5 288 Z " /><path fill="rgb(20,101,192)" stroke="rgb(20,101,192)" stroke-width="1" opacity="1" d="M 273.5 292 L 275.5 295 L 273.5 292 Z " /><path fill="rgb(20,101,192)" stroke="rgb(20,101,192)" stroke-width="1" opacity="1" d="M 277.5 296 L 279.5 299 L 277.5 296 Z " /><path fill="rgb(20,101,192)" stroke="rgb(20,101,192)" stroke-width="1" opacity="1" d="M 281.5 300 L 283.5 303 L 281.5 300 Z " /><path fill="rgb(20,101,192)" stroke="rgb(20,101,192)" stroke-width="1" opacity="1" d="M 285.5 304 L 287.5 307 L 285.5 304 Z " /><path fill="rgb(20,101,192)" stroke="rgb(20,101,192)" stroke-width="1" opacity="1" d="M 289.5 308 L 291.5 311 L 289.5 308 Z " /><path fill="rgb(20,101,192)" stroke="rgb(20,101,192)" stroke-width="1" opacity="1" d="M 293.5 312 L 295.5 315 L 293.5 312 Z " /><path fill="rgb(20,101,192)" stroke="rgb(20,101,192)" stroke-width="1" opacity="1" d="M 297.5 316 L 299.5 319 L 297.5 316 Z " /><path fill="rgb(20,101,192)" stroke="rgb(20,101,192)" stroke-width="1" opacity="1" d="M 301.5 320 L 303.5 323 L 301.5 320 Z " /><path fill="rgb(20,101,192)" stroke="rgb(20,101,192)" stroke-width="1" opacity="1" d="M 305.5 324 L 307.5 327 L 305.5 324 Z " /><path fill="rgb(20,101,192)" stroke="rgb(20,101,192)" stroke-width="1" opacity="1" d="M 309.5 328 L 311.5 331 L 309.5 328 Z " /><path fill="rgb(20,101,192)" stroke="rgb(20,101,192)" stroke-width="1" opacity="1" d="M 313.5 332 L 315.5 335 L 313.5 332 Z " /><path fill="rgb(20,101,192)" stroke="rgb(20,101,192)" stroke-width="1" opacity="1" d="M 95 333 L 99 333.5 L 98 336 L 95 334.5 L 95 333 Z " /><path fill="rgb(20,101,192)" stroke="rgb(20,101,192)" stroke-width="1" opacity="1" d="M 100.5 334 L 101.5 336 L 100.5 334 Z " /><path fill="rgb(20,101,192)" stroke="rgb(20,101,192)" stroke-width="1" opacity="1" d="M 317.5 336 L 319.5 339 L 317.5 336 Z " /><path fill="rgb(20,101,192)" stroke="rgb(20,101,192)" stroke-width="1" opacity="1" d="M 100.5 338 L 101.5 340 L 100.5 338 Z " /><path fill="rgb(20,101,192)" stroke="rgb(20,101,192)" stroke-width="1" opacity="1" d="M 321.5 340 L 323.5 343 L 321.5 340 Z " /><path fill="rgb(20,101,192)" stroke="rgb(20,101,192)" stroke-width="1" opacity="1" d="M 325.5 344 L 327.5 347 L 325.5 344 Z " /><path fill="rgb(20,101,192)" stroke="rgb(20,101,192)" stroke-width="1" opacity="1" d="M 329.5 348 L 331.5 351 L 329.5 348 Z " /><path fill="rgb(20,101,192)" stroke="rgb(20,101,192)" stroke-width="1" opacity="1" d="M 333.5 352 L 335.5 355 L 333.5 352 Z " /><path fill="rgb(20,101,192)" stroke="rgb(20,101,192)" stroke-width="1" opacity="1" d="M 337.5 356 L 339.5 359 L 337.5 356 Z " /><path fill="rgb(20,101,192)" stroke="rgb(20,101,192)" stroke-width="1" opacity="1" d="M 341.5 360 L 343.5 363 L 341.5 360 Z " /><path fill="rgb(20,101,192)" stroke="rgb(20,101,192)" stroke-width="1" opacity="1" d="M 345.5 364 L 346.5 366 L 345.5 364 Z " /><path fill="rgb(20,101,192)" stroke="rgb(20,101,192)" stroke-width="1" opacity="1" d="M 354.5 368 L 362 368.5 L 354.5 369 L 354.5 368 Z " /><path fill="rgb(20,101,192)" stroke="rgb(20,101,192)" stroke-width="1" opacity="1" d="M 373.5 368 L 378 368.5 L 373.5 369 L 373.5 368 Z " /><path fill="rgb(20,101,192)" stroke="rgb(20,101,192)" stroke-width="1" opacity="1" d="M 389.5 368 L 394 368.5 L 389.5 369 L 389.5 368 Z " /><path fill="rgb(20,101,192)" stroke="rgb(20,101,192)" stroke-width="1" opacity="1" d="M 405.5 368 L 415 368.5 L 405.5 369 L 405.5 368 Z " /><path fill="rgb(26,104,188)" stroke="rgb(26,104,188)" stroke-width="1" opacity="0.996078431372549" d="M 100.5 120 Q 102.8 119.3 102 121.5 L 100.5 120 Z " /><path fill="rgb(26,104,188)" stroke="rgb(26,104,188)" stroke-width="1" opacity="0.996078431372549" d="M 112 120 L 127.5 120 L 128 122 L 112.5 122 L 112 120 Z " /><path fill="rgb(26,104,188)" stroke="rgb(26,104,188)" stroke-width="1" opacity="0.996078431372549" d="M 316.5 120 L 321 120.5 L 316.5 121 L 316.5 120 Z " /><path fill="rgb(26,104,188)" stroke="rgb(26,104,188)" stroke-width="1" opacity="0.996078431372549" d="M 104.5 123 L 111.5 131 Q 109.3 131.8 110 129.5 L 104 124.5 L 104.5 123 Z " /><path fill="rgb(26,104,188)" stroke="rgb(26,104,188)" stroke-width="1" opacity="0.996078431372549" d="M 328.5 123 L 331 124.5 L 329.5 124 L 328.5 123 Z " /><path fill="rgb(26,104,188)" stroke="rgb(26,104,188)" stroke-width="1" opacity="0.996078431372549" d="M 333.5 125 L 340 130.5 L 338.5 130 L 333.5 125 Z " /><path fill="rgb(26,104,188)" stroke="rgb(26,104,188)" stroke-width="1" opacity="0.996078431372549" d="M 99.5 126 L 100 144 L 98 144.5 L 98 160.5 L 97 160.5 Q 98.3 149.5 96 144 L 98 143.5 L 98 130.5 L 99.5 126 Z " /><path fill="rgb(26,104,188)" stroke="rgb(26,104,188)" stroke-width="1" opacity="0.996078431372549" d="M 94.5 132 L 95 134.5 L 94 138 L 92 137.5 L 94.5 132 Z " /><path fill="rgb(26,104,188)" stroke="rgb(26,104,188)" stroke-width="1" opacity="0.996078431372549" d="M 113.5 132 L 116 135.5 L 113 133.5 L 113.5 132 Z " /><path fill="rgb(26,104,188)" stroke="rgb(26,104,188)" stroke-width="1" opacity="0.996078431372549" d="M 342.5 133 L 343.5 135 Q 340.7 135.7 342.5 133 Z " /><path fill="rgb(26,104,188)" stroke="rgb(26,104,188)" stroke-width="1" opacity="0.996078431372549" d="M 334 134 L 337 135.5 L 336.5 137 L 334 136 L 334 134 Z " /><path fill="rgb(26,104,188)" stroke="rgb(26,104,188)" stroke-width="1" opacity="0.996078431372549" d="M 345.5 136 L 350 139.5 L 355 145.5 L 350.5 142 L 349 142.5 Q 350.7 137.7 346.5 139 L 345.5 136 Z " /><path fill="rgb(26,104,188)" stroke="rgb(26,104,188)" stroke-width="1" opacity="0.996078431372549" d="M 93 140 Q 96 139 95 142 Q 92 143 93 140 Z " /><path fill="rgb(26,104,188)" stroke="rgb(26,104,188)" stroke-width="1" opacity="0.996078431372549" d="M 122.5 141 L 123.5 143 L 122.5 141 Z " /><path fill="rgb(26,104,188)" stroke="rgb(26,104,188)" stroke-width="1" opacity="0.996078431372549" d="M 344 142 Q 347 141 346 144 Q 343 145 344 142 Z " /><path fill="rgb(26,104,188)" stroke="rgb(26,104,188)" stroke-width="1" opacity="0.996078431372549" d="M 125.5 144 L 127.5 147 L 125.5 144 Z " /><path fill="rgb(26,104,188)" stroke="rgb(26,104,188)" stroke-width="1" opacity="0.996078431372549" d="M 356.5 146 L 360 150.5 L 357 148.5 L 356.5 146 Z " /><path fill="rgb(26,104,188)" stroke="rgb(26,104,188)" stroke-width="1" opacity="0.996078431372549" d="M 129.5 148 L 131.5 151 L 129.5 148 Z " /><path fill="rgb(26,104,188)" stroke="rgb(26,104,188)" stroke-width="1" opacity="0.996078431372549" d="M 361.5 152 L 366 155.5 L 371.5 162 L 374 163.5 L 376 166.5 L 374.5 167 L 373 163 L 369 161.5 L 366.5 158 Q 363.5 158.7 365 155 L 362.5 155 L 361.5 152 Z " /><path fill="rgb(26,104,188)" stroke="rgb(26,104,188)" stroke-width="1" opacity="0.996078431372549" d="M 83.5 156 L 85 158.5 L 82 158.5 L 83.5 156 Z " /><path fill="rgb(26,104,188)" stroke="rgb(26,104,188)" stroke-width="1" opacity="0.996078431372549" d="M 136.5 156 L 143.5 164 L 136.5 156 Z " /><path fill="rgb(26,104,188)" stroke="rgb(26,104,188)" stroke-width="1" opacity="0.996078431372549" d="M 359 158 Q 363.1 156.7 362 160 Q 357.9 161.3 359 158 Z " /><path fill="rgb(26,104,188)" stroke="rgb(26,104,188)" stroke-width="1" opacity="0.996078431372549" d="M 377.5 168 L 382 171.5 L 387.5 178 L 390 179.5 L 392 182.5 L 390.5 183 L 389 179 L 385 177.5 L 382.5 174 Q 379.5 174.7 381 171 L 378.5 171 L 377.5 168 Z " /><path fill="rgb(26,104,188)" stroke="rgb(26,104,188)" stroke-width="1" opacity="0.996078431372549" d="M 152.5 172 L 159.5 180 L 152.5 172 Z " /><path fill="rgb(26,104,188)" stroke="rgb(26,104,188)" stroke-width="1" opacity="0.996078431372549" d="M 375 174 Q 379.1 172.7 378 176 Q 373.9 177.3 375 174 Z " /><path fill="rgb(26,104,188)" stroke="rgb(26,104,188)" stroke-width="1" opacity="0.996078431372549" d="M 74 176 L 76 176.5 L 75 180 L 72.5 181 L 73 179.5 L 74 176 Z " /><path fill="rgb(26,104,188)" stroke="rgb(26,104,188)" stroke-width="1" opacity="0.996078431372549" d="M 393.5 184 L 398 187.5 L 403.5 194 L 406 195.5 L 407.5 198 L 410 199.5 L 411.5 202 L 414 203.5 L 420 210.5 L 420 370 L 349.5 370 L 348 368.5 L 349.5 369 L 353.5 368 L 354.5 369 L 368.5 369 L 372.5 368 L 373.5 369 L 384.5 369 L 388.5 368 L 389.5 369 L 400.5 369 L 404.5 368 L 405.5 369 L 414.5 369 L 419 368 L 419 211.5 L 414.5 206 Q 411.5 206.7 413 203 L 410.5 203 L 409 199 L 405 197.5 Q 406.3 193.8 402.5 195 L 398.5 190 Q 395.5 190.7 397 187 L 394.5 187 L 393.5 184 Z " /><path fill="rgb(26,104,188)" stroke="rgb(26,104,188)" stroke-width="1" opacity="0.996078431372549" d="M 68 188 Q 71 186.8 70 190.5 L 69 195 L 65.5 196 L 66 194.5 L 68 188 Z " /><path fill="rgb(26,104,188)" stroke="rgb(26,104,188)" stroke-width="1" opacity="0.996078431372549" d="M 168.5 188 L 175.5 196 L 168.5 188 Z " /><path fill="rgb(26,104,188)" stroke="rgb(26,104,188)" stroke-width="1" opacity="0.996078431372549" d="M 391 190 Q 395.1 188.7 394 192 Q 389.9 193.3 391 190 Z " /><path fill="rgb(26,104,188)" stroke="rgb(26,104,188)" stroke-width="1" opacity="0.996078431372549" d="M 184.5 204 L 191.5 212 L 184.5 204 Z " /><path fill="rgb(26,104,188)" stroke="rgb(26,104,188)" stroke-width="1" opacity="0.996078431372549" d="M 407 206 Q 411.1 204.7 410 208 Q 405.9 209.3 407 206 Z " /><path fill="rgb(26,104,188)" stroke="rgb(26,104,188)" stroke-width="1" opacity="0.996078431372549" d="M 60.5 207 L 61 208.5 L 58 210.5 L 60.5 207 Z " /><path fill="rgb(26,104,188)" stroke="rgb(26,104,188)" stroke-width="1" opacity="0.996078431372549" d="M 62.5 207 L 64 207 L 64 211 Q 61.3 212.1 62 209.5 L 62.5 207 Z " /><path fill="rgb(26,104,188)" stroke="rgb(26,104,188)" stroke-width="1" opacity="0.996078431372549" d="M 200.5 220 L 207.5 228 L 200.5 220 Z " /><path fill="rgb(26,104,188)" stroke="rgb(26,104,188)" stroke-width="1" opacity="0.996078431372549" d="M 55 224 Q 59.5 222.5 58 227 L 55 225.5 L 55 224 Z " /><path fill="rgb(26,104,188)" stroke="rgb(26,104,188)" stroke-width="1" opacity="0.996078431372549" d="M 48.5 234 L 49.5 236 L 47 235.5 L 48.5 234 Z " /><path fill="rgb(26,104,188)" stroke="rgb(26,104,188)" stroke-width="1" opacity="0.996078431372549" d="M 216.5 236 L 223.5 244 L 216.5 236 Z " /><path fill="rgb(26,104,188)" stroke="rgb(26,104,188)" stroke-width="1" opacity="0.996078431372549" d="M 46.5 237 L 47 238.5 L 46 241 L 44 240.5 L 46.5 237 Z " /><path fill="rgb(26,104,188)" stroke="rgb(26,104,188)" stroke-width="1" opacity="0.996078431372549" d="M 42.5 245 L 44 249 L 41 247.5 L 42.5 245 Z " /><path fill="rgb(26,104,188)" stroke="rgb(26,104,188)" stroke-width="1" opacity="0.996078431372549" d="M 232.5 252 L 239.5 260 L 232.5 252 Z " /><path fill="rgb(26,104,188)" stroke="rgb(26,104,188)" stroke-width="1" opacity="0.996078431372549" d="M 39.5 254 L 40 259.5 L 39 261.5 Q 41.7 263.3 40 269.5 L 39 269.5 L 38 259.5 L 39.5 254 Z " /><path fill="rgb(26,104,188)" stroke="rgb(26,104,188)" stroke-width="1" opacity="0.996078431372549" d="M 248.5 268 L 255.5 276 L 248.5 268 Z " /><path fill="rgb(26,104,188)" stroke="rgb(26,104,188)" stroke-width="1" opacity="0.996078431372549" d="M 40.5 273 Q 43.8 273.8 43 278.5 L 42 278.5 L 40.5 273 Z " /><path fill="rgb(26,104,188)" stroke="rgb(26,104,188)" stroke-width="1" opacity="0.996078431372549" d="M 46 284 Q 49 283 48 286 Q 45 287 46 284 Z " /><path fill="rgb(26,104,188)" stroke="rgb(26,104,188)" stroke-width="1" opacity="0.996078431372549" d="M 264.5 284 L 271.5 292 L 264.5 284 Z " /><path fill="rgb(26,104,188)" stroke="rgb(26,104,188)" stroke-width="1" opacity="0.996078431372549" d="M 50.5 287 Q 53.5 286.2 52 290 L 49 288.5 L 50.5 287 Z " /><path fill="rgb(26,104,188)" stroke="rgb(26,104,188)" stroke-width="1" opacity="0.996078431372549" d="M 57.5 296 Q 59.8 295.3 59 297.5 L 57.5 296 Z " /><path fill="rgb(26,104,188)" stroke="rgb(26,104,188)" stroke-width="1" opacity="0.996078431372549" d="M 280.5 300 L 287.5 308 L 280.5 300 Z " /><path fill="rgb(26,104,188)" stroke="rgb(26,104,188)" stroke-width="1" opacity="0.996078431372549" d="M 66.5 303 Q 69.5 302.2 68 306 L 65 304.5 L 66.5 303 Z " /><path fill="rgb(26,104,188)" stroke="rgb(26,104,188)" stroke-width="1" opacity="0.996078431372549" d="M 73.5 312 Q 75.8 311.3 75 313.5 L 73.5 312 Z " /><path fill="rgb(26,104,188)" stroke="rgb(26,104,188)" stroke-width="1" opacity="0.996078431372549" d="M 296.5 316 L 303.5 324 L 296.5 316 Z " /><path fill="rgb(26,104,188)" stroke="rgb(26,104,188)" stroke-width="1" opacity="0.996078431372549" d="M 82.5 319 Q 85.5 318.2 84 322 L 81 320.5 L 82.5 319 Z " /><path fill="rgb(26,104,188)" stroke="rgb(26,104,188)" stroke-width="1" opacity="0.996078431372549" d="M 89.5 328 Q 91.8 327.3 91 329.5 L 89.5 328 Z " /><path fill="rgb(26,104,188)" stroke="rgb(26,104,188)" stroke-width="1" opacity="0.996078431372549" d="M 100.5 329 L 101 331.5 L 100 331.5 L 100.5 329 Z " /><path fill="rgb(26,104,188)" stroke="rgb(26,104,188)" stroke-width="1" opacity="0.996078431372549" d="M 97.5 331 L 98 333 L 96 332.5 L 97.5 331 Z " /><path fill="rgb(26,104,188)" stroke="rgb(26,104,188)" stroke-width="1" opacity="0.996078431372549" d="M 312.5 332 L 319.5 340 L 312.5 332 Z " /><path fill="rgb(26,104,188)" stroke="rgb(26,104,188)" stroke-width="1" opacity="0.996078431372549" d="M 98 334 L 100.5 335 L 102 334.5 L 100 338.5 L 105 341.5 L 107 345.5 L 105 344.5 Q 105.8 342.3 103.5 343 L 97 336.5 L 98 335.5 L 98 334 Z " /><path fill="rgb(26,104,188)" stroke="rgb(26,104,188)" stroke-width="1" opacity="0.996078431372549" d="M 328.5 348 L 335.5 356 L 328.5 348 Z " /><path fill="rgb(66,165,245)" stroke="rgb(66,165,245)" stroke-width="1" opacity="1" d="M 232.5 51 L 250 51.5 L 232.5 52 L 232.5 51 Z " /><path fill="rgb(66,165,245)" stroke="rgb(66,165,245)" stroke-width="1" opacity="1" d="M 225.5 53 Q 230.3 53.3 232 56.5 Q 231.3 59.1 234 58 L 235 54 L 241.5 53 L 257 53 L 258.5 58 L 259 56 L 261.5 56 L 269 60.5 Q 268.3 62.8 270.5 62 L 277 67 L 279.5 71 L 286 76.5 Q 285.3 78.8 287.5 78 L 289 81 L 297 87.5 L 299.5 91 L 301 91 Q 299.5 94.7 302.5 94 L 305 95 Q 303.9 97.7 306.5 97 L 315.5 107 L 317 107 Q 315.5 110.7 318.5 110 L 321 111 Q 319.9 113.7 322.5 113 L 332.5 124 Q 329.9 124.7 331 122 L 326.5 122 L 322 119.5 Q 322.8 117.3 320.5 118 L 318.5 117 L 317.5 120 L 288.5 120 L 288 119.5 L 288 112 L 272 112 L 272 116 L 280 116 L 280 120 L 256.5 120 L 256 119.5 L 256 112 L 240 112 L 240 116 L 248 116 L 248 120 L 224.5 120 L 224 119.5 L 224 112 L 208 112 L 208 116 L 216 116 L 216 120 L 192.5 120 L 192 119.5 L 192 112 L 176 112 L 176 116 L 184 116 L 184 120 L 152.5 120 L 152 116 L 160 116 L 160 112 L 156 111.5 L 156 97.5 L 155.5 95 L 152 95.5 L 152 112 L 144 112 L 144 120 L 128 120 Q 126.9 117.3 129.5 118 L 129.5 117 L 114 116 L 112 120 L 104 120 Q 102.9 117.3 105.5 118 L 108.5 117 L 110 117.5 Q 108.9 114.2 111.5 115 L 126 107 L 126.5 110 L 129 109 L 128 105.5 L 139 101 Q 137.8 98 141.5 99 L 145.5 101 L 145 97.5 Q 144.2 94.9 147.5 96 Q 150.2 97.2 148 98.5 Q 146.7 103.3 150 102 L 151 95.5 Q 148.8 94.3 151.5 93 L 164.5 87 Q 165 90.5 169.5 90 Q 172.5 88.5 169.5 87 L 167 85.5 Q 166.3 83.3 168.5 84 L 176 81 Q 174.9 78.3 177.5 79 L 193.5 71 L 195.5 74 L 197 71 L 200 69.5 L 199 67 L 210.5 61 L 213.5 61 L 215 61.5 L 214 59.5 L 225.5 53 Z M 265 62 L 262 66 L 266 65 L 265 62 Z M 271 69 L 269 72 L 273 74 Q 275 75 274 72 L 271 69 Z M 202 76 Q 200 81 204 80 Q 206 75 202 76 Z M 181 78 L 179 80 Q 178 82 181 81 L 181 78 Z M 280 78 Q 278 81 281 80 L 280 78 Z M 279 80 Q 277 83 280 82 L 279 80 Z M 287 85 L 285 88 L 289 89 Q 291 90 290 88 L 287 85 Z M 177 88 L 175 90 L 178 90 L 177 88 Z M 294 94 L 294 98 L 297 97 Q 299 98 298 96 L 294 94 Z M 141 101 L 140 104 L 142 106 Q 144 105 142 104 Q 143 100 141 101 Z M 303 101 L 301 104 L 305 105 Q 307 106 306 104 L 303 101 Z M 310 110 L 310 114 L 313 113 Q 315 114 314 112 L 310 110 Z " /><path fill="rgb(66,165,245)" stroke="rgb(66,165,245)" stroke-width="1" opacity="1" d="M 100 122 L 103 123.5 Q 103.8 125.8 101.5 125 L 100 122 Z " /><path fill="rgb(66,165,245)" stroke="rgb(66,165,245)" stroke-width="1" opacity="1" d="M 101.5 126 L 106 128.5 L 107 132.5 L 106 135.5 L 108 136.5 Q 105.9 130.7 110.5 132 L 116 136 L 118.5 140 Q 120.8 139.3 120 141.5 L 124 144 L 126.5 148 Q 128.8 147.3 128 149.5 L 136 156 L 136 157.5 L 146.5 168 Q 148.8 167.3 148 169.5 L 152 172 L 152 173.5 L 162.5 184 Q 164.8 183.3 164 185.5 L 168 188 L 168 189.5 L 178.5 200 Q 180.8 199.3 180 201.5 L 184 204 L 184 205.5 L 194.5 216 Q 196.8 215.3 196 217.5 L 200 220 L 200 221.5 L 210.5 232 Q 212.8 231.3 212 233.5 L 216 236 L 216 237.5 L 226.5 248 Q 228.8 247.3 228 249.5 L 232 252 L 232 253.5 L 242.5 264 Q 244.8 263.3 244 265.5 L 248 268 L 248 269.5 L 258.5 280 Q 260.8 279.3 260 281.5 L 264 284 L 264 285.5 L 274.5 296 Q 276.8 295.3 276 297.5 L 280 300 L 280 301.5 L 290.5 312 Q 292.8 311.3 292 313.5 L 296 316 L 296 317.5 L 306.5 328 Q 308.8 327.3 308 329.5 L 312 332 L 312 333.5 L 322.5 344 Q 324.8 343.3 324 345.5 L 328 348 L 328 349.5 L 338.5 360 Q 340.8 359.3 340 361.5 L 344 364 L 348 369.5 L 345.5 368 L 336.5 367 L 335.5 368 L 144.5 368 L 142.5 368 L 141 368.5 L 341 369.5 L 132.5 370 L 130.5 367 Q 129.3 369.3 128 366.5 Q 130.3 365.3 127.5 364 Q 125.3 364.8 126 362.5 L 124 362.5 L 125 359.5 L 124 356 L 118.5 355 L 117 355.5 L 120.5 353 L 122 353.5 L 122 352 L 118 352 Q 119.1 349.3 116.5 350 L 112.5 349 L 111 349.5 Q 111.8 347.3 109.5 348 Q 107 346.8 108 343 Q 105.3 344.1 106 341.5 L 100 327.5 L 100 144 L 102 143.5 L 102 130.5 L 101.5 126 Z M 122 152 Q 123 155 120 154 L 120 160 L 128 160 L 128 154 L 124 154 Q 125 151 122 152 Z M 103 327 L 102 330 Q 105 329 104 332 Q 110 334 108 328 L 103 327 Z M 128 358 L 126 360 L 128 361 L 128 358 Z M 137 367 L 137 368 L 141 368 L 137 367 Z " /><path fill="rgb(66,165,245)" stroke="rgb(66,165,245)" stroke-width="1" opacity="1" d="M 120.5 358 L 121.5 360 L 120.5 358 Z " /><path fill="rgb(139,200,239)" stroke="rgb(139,200,239)" stroke-width="1" opacity="0.9411764705882353" d="M 130.5 370 L 144.5 384 L 146 384 L 146 385.5 L 187.5 427 L 191.5 429 L 349 429 L 349.5 383 L 350 430 L 189.5 430 L 130.5 370 Z " /><path fill="rgb(139,200,239)" stroke="rgb(139,200,239)" stroke-width="1" opacity="0.9411764705882353" d="M 349.5 374 L 350 378.5 L 349 378.5 L 349.5 374 Z " /><path fill="rgb(132,203,248)" stroke="rgb(132,203,248)" stroke-width="1" opacity="1" d="M 131.5 370 L 349.5 370 L 350 373.5 L 349 378.5 L 350 382.5 L 349 383.5 L 349 429 L 191.5 429 L 187.5 427 L 146 385.5 Q 146.8 383.3 144.5 384 L 131.5 370 Z " /></svg>